<?xml version="1.0" standalone="no"?>
<!DOCTYPE svg PUBLIC "-//W3C//DTD SVG 20010904//EN"
 "http://www.w3.org/TR/2001/REC-SVG-20010904/DTD/svg10.dtd">
<svg version="1.0" xmlns="http://www.w3.org/2000/svg"
 width="225.000000pt" height="225.000000pt" viewBox="0 0 225.000000 225.000000"
 preserveAspectRatio="xMidYMid meet">
<metadata>
Created by potrace 1.14, written by Peter Selinger 2001-2017
</metadata>
<g transform="translate(0.000000,225.000000) scale(0.100000,-0.100000)"
fill="#000000" stroke="none">
<path d="M658 2063 c12 -2 32 -2 45 0 12 2 2 4 -23 4 -25 0 -35 -2 -22 -4z"/>
<path d="M1128 2063 c34 -2 88 -2 120 0 31 2 3 3 -63 3 -66 0 -92 -1 -57 -3z"/>
<path d="M1396 2059 c4 -7 -28 -21 -193 -81 -81 -29 -81 -29 -135 -13 -69 22
-353 32 -455 16 -40 -6 -106 -24 -147 -41 -69 -27 -77 -28 -122 -17 -41 10
-49 16 -48 34 1 22 0 22 -50 -6 -119 -69 -216 -203 -236 -328 -36 -222 131
-451 385 -527 25 -8 87 -20 137 -27 l90 -12 -4 -189 c-1 -103 0 -188 5 -188 4
0 7 -10 7 -22 0 -30 13 -14 27 35 l13 42 -6 -50 c-9 -76 -26 -102 -75 -110
-38 -7 -40 -9 -34 -34 9 -37 110 -266 140 -317 14 -24 32 -44 40 -44 31 0 78
84 165 297 l38 91 -48 12 c-50 12 -70 37 -70 83 1 19 3 18 14 -8 15 -34 31
-50 67 -63 l24 -10 -29 61 c-30 60 -30 61 -31 236 0 170 1 176 20 173 17 -3
85 -8 133 -11 7 -1 10 -5 7 -11 -4 -6 1 -7 11 -3 13 5 15 3 9 -7 -6 -9 -4 -11
4 -6 17 11 113 -55 142 -96 l22 -33 -39 35 c-33 29 -35 30 -12 5 29 -33 48
-75 48 -107 0 -16 -3 -18 -14 -9 -11 10 -12 4 -5 -36 13 -70 19 -83 34 -83 8
0 20 9 28 20 16 23 27 16 27 -16 0 -18 11 -29 48 -48 98 -49 157 -61 307 -60
124 0 148 3 213 26 91 33 152 72 222 143 l55 56 -60 -26 c-63 -28 -182 -55
-243 -55 -28 0 -42 -7 -69 -36 -18 -20 -33 -40 -33 -45 0 -15 -47 -59 -64 -59
-22 0 -20 27 4 42 11 7 20 16 20 21 0 4 11 20 25 35 29 32 32 50 8 58 -71 23
-101 39 -85 45 13 4 6 11 -28 27 -25 11 -64 32 -87 47 -39 24 -55 24 -35 0 4
-6 -39 36 -95 92 -78 78 -118 109 -170 134 l-67 32 49 19 c66 26 154 99 214
178 49 64 114 188 127 243 l6 27 -500 0 -501 0 37 -77 c33 -71 37 -87 40 -181
3 -57 0 -107 -4 -112 -11 -10 -120 44 -169 83 -156 125 -150 388 12 520 78 64
156 89 297 95 165 7 252 -18 328 -93 l38 -37 67 59 c38 32 108 94 158 137 49
44 92 81 94 83 3 2 -7 2 -22 1 -14 -1 -24 -5 -21 -9z m-136 -119 c0 -6 -10
-21 -23 -33 -43 -41 -96 -87 -102 -87 -2 0 -4 12 -3 28 3 30 26 62 45 62 7 0
27 9 45 20 38 23 38 23 38 10z m-875 -69 c3 -5 1 -12 -5 -16 -5 -3 -10 -2 -10
4 0 6 -8 8 -17 5 -15 -5 -16 -4 -3 5 19 13 27 14 35 2z m59 -39 c3 -5 -1 -9
-9 -9 -8 0 -12 4 -9 9 3 4 7 8 9 8 2 0 6 -4 9 -8z m-145 -324 c1 -20 12 -58
26 -84 14 -26 23 -49 21 -51 -8 -9 -81 -12 -92 -5 -6 4 -13 15 -17 25 -4 10
-11 15 -17 12 -5 -3 -10 -2 -10 4 0 5 6 14 13 18 8 4 17 17 21 28 6 16 9 17
16 5 7 -11 10 -7 10 15 0 17 3 48 7 70 5 31 8 35 14 20 4 -11 8 -37 8 -57z
m1211 63 c0 -9 -139 -102 -184 -122 -22 -11 -29 -8 -61 19 -72 64 -84 67 -270
67 l-170 0 -5 -170 -6 -170 -2 173 -2 173 -93 -2 c-70 -1 -101 3 -125 15 -18
9 -32 19 -32 21 0 3 214 5 475 5 276 0 475 -4 475 -9z m-410 -81 c40 -22 47
-107 13 -173 -8 -16 -12 -31 -9 -35 3 -3 6 0 6 6 0 7 6 12 14 12 15 0 15 -14
-2 -75 -18 -64 -140 -97 -357 -99 -116 0 -153 3 -218 22 -82 23 -176 68 -215
102 -26 22 -23 29 31 63 28 18 28 18 69 -18 88 -75 182 -104 333 -105 l100 0
-3 141 c-2 77 -1 147 2 155 4 11 29 14 111 14 59 0 115 -4 125 -10z m-283
-702 c-1 -51 -3 -12 -3 87 0 99 2 141 3 93 2 -48 2 -129 0 -180z m423 48 c0
-5 -7 -1 -15 10 -8 10 -14 24 -14 29 0 6 6 1 14 -9 8 -11 15 -24 15 -30z
m-470 -594 c0 -5 -7 -17 -15 -28 -15 -19 -20 -8 -9 20 6 17 24 22 24 8z"/>
<path d="M918 1203 c7 -3 16 -2 19 1 4 3 -2 6 -13 5 -11 0 -14 -3 -6 -6z"/>
<path d="M435 2030 c-13 -5 -14 -9 -5 -9 8 0 24 4 35 9 13 5 14 9 5 9 -8 0
-24 -4 -35 -9z"/>
<path d="M380 2010 c-8 -5 -10 -10 -5 -10 6 0 17 5 25 10 8 5 11 10 5 10 -5 0
-17 -5 -25 -10z"/>
<path d="M324 1984 c-18 -14 -18 -14 6 -3 31 14 36 19 24 19 -6 0 -19 -7 -30
-16z"/>
<path d="M975 1030 c-3 -6 1 -7 9 -4 18 7 21 14 7 14 -6 0 -13 -4 -16 -10z"/>
<path d="M2221 933 c0 -6 -17 -32 -36 -57 -40 -53 -45 -69 -12 -38 13 12 26
19 30 16 10 -10 29 46 24 70 -2 12 -5 16 -6 9z"/>
<path d="M2119 783 l-24 -28 28 24 c25 23 32 31 24 31 -2 0 -14 -12 -28 -27z"/>
<path d="M1735 770 c19 -8 73 -14 64 -6 -2 2 -22 6 -44 9 -28 5 -34 4 -20 -3z"/>
<path d="M1246 631 c-9 -10 -35 -26 -57 -36 l-41 -19 44 -22 c24 -13 54 -23
67 -24 21 0 131 55 131 66 0 7 -99 54 -113 54 -8 0 -21 -8 -31 -19z"/>
</g>
</svg>
