<?xml version="1.0" standalone="no"?>
<!DOCTYPE svg PUBLIC "-//W3C//DTD SVG 20010904//EN"
 "http://www.w3.org/TR/2001/REC-SVG-20010904/DTD/svg10.dtd">
<svg version="1.0" xmlns="http://www.w3.org/2000/svg"
 width="654.000000pt" height="654.000000pt" viewBox="0 0 654.000000 654.000000"
 preserveAspectRatio="xMidYMid meet">
<metadata>
Created by potrace 1.14, written by Peter Selinger 2001-2017
</metadata>
<g transform="translate(0.000000,654.000000) scale(0.100000,-0.100000)"
fill="#000000" stroke="none">
<path d="M5217 5860 c-8 -30 65 -255 115 -355 93 -185 239 -310 420 -360 69
-20 128 -16 63 3 -70 21 -195 102 -275 178 -117 112 -199 244 -262 422 -16 48
-36 98 -43 111 l-12 24 -6 -23z"/>
<path d="M4540 5215 c-140 -23 -323 -84 -451 -151 -90 -47 -260 -164 -337
-232 -63 -55 -184 -198 -247 -292 -95 -140 -200 -407 -235 -595 -8 -38 -16
-74 -20 -78 -4 -4 -32 47 -64 115 -198 425 -423 679 -731 828 -218 106 -404
147 -625 137 -209 -9 -392 -59 -585 -161 -150 -79 -228 -138 -361 -270 -254
-254 -407 -570 -481 -991 -24 -139 -24 -510 1 -645 42 -236 117 -466 212 -652
54 -104 56 -107 81 -97 41 15 142 77 202 123 68 53 206 196 242 251 14 22 41
65 61 95 19 30 72 127 118 215 109 213 163 305 175 302 13 -4 30 -60 50 -167
33 -167 130 -399 222 -528 64 -89 214 -239 256 -255 24 -9 21 -31 -3 -24 -12
3 -20 0 -20 -8 0 -8 -7 -11 -18 -8 -10 2 -24 -3 -31 -11 -8 -9 -19 -16 -25
-16 -22 -1 -133 -56 -191 -96 -86 -59 -234 -217 -273 -291 -18 -34 -44 -97
-58 -140 -27 -83 -28 -132 -3 -308 13 -95 18 -305 8 -332 -5 -14 -17 -23 -29
-23 -23 0 -26 -10 -8 -28 30 -30 92 -5 103 41 2 12 12 54 20 92 19 88 45 155
58 155 6 0 62 -33 126 -73 127 -81 279 -165 501 -279 399 -205 661 -297 995
-349 131 -21 418 -16 566 9 456 77 877 317 1322 751 525 513 735 774 912 1136
151 309 223 558 270 940 30 240 15 523 -40 758 -53 230 -186 474 -352 649 -47
50 -53 60 -43 78 6 11 60 72 120 135 61 62 110 118 110 122 0 15 -31 53 -42
53 -6 0 -34 -11 -62 -24 -28 -13 -73 -26 -100 -30 -94 -12 -218 -102 -284
-206 -20 -30 -38 -57 -41 -60 -10 -9 -139 -260 -161 -315 -24 -59 -48 -137
-60 -195 -7 -36 -17 -67 -21 -70 -5 -3 -10 -36 -11 -73 -3 -66 -4 -67 -30 -67
-18 0 -28 5 -28 15 0 8 -7 15 -15 15 -8 0 -37 21 -64 48 -87 84 -108 102 -118
102 -6 0 -44 16 -85 34 -41 19 -106 42 -146 51 -82 19 -97 32 -88 77 8 37 14
47 141 214 131 174 226 374 250 530 7 49 7 49 -110 70 -99 17 -311 17 -425 -1z
m-2684 -953 c92 -49 247 -227 461 -530 94 -132 304 -341 432 -427 79 -54 145
-95 189 -117 24 -13 60 -37 80 -55 l37 -32 -37 -1 c-39 0 -205 78 -308 145
-114 74 -390 359 -390 403 0 5 -9 17 -21 28 -12 10 -30 37 -42 59 -30 60 -135
213 -186 273 -72 84 -174 156 -325 227 -76 37 -136 68 -134 70 2 3 22 8 44 13
41 9 113 -11 200 -56z m-707 -1436 c-7 -20 -18 -36 -25 -36 -8 0 -6 13 8 41
23 49 35 45 17 -5z m1141 -734 c27 -10 100 -63 100 -72 0 -6 -4 -10 -9 -10
-15 0 -165 72 -179 87 -7 7 -20 13 -28 13 -14 0 -19 12 -8 23 3 3 29 -3 58
-15 28 -11 58 -23 66 -26z"/>
<path d="M422 1933 c-47 -9 -14 -28 59 -35 139 -12 240 -56 396 -174 158 -118
292 -274 356 -414 29 -62 51 -74 26 -14 -7 16 -13 31 -14 34 0 3 -4 14 -8 25
-3 11 -8 33 -11 48 -9 53 -85 192 -137 249 -95 107 -255 212 -384 252 -84 27
-222 41 -283 29z"/>
</g>
</svg>
